<?xml version="1.0" encoding="UTF-8"?>
<svg id="Layer_2" xmlns="http://www.w3.org/2000/svg" viewBox="0 0 1927.24 1927.24">
    <defs>
        <style>
            .cls-1{fill:none;stroke:#000;stroke-linecap:round;stroke-linejoin:round;stroke-width:37.41px;}.cls-2{fill:#fff;}.cls-3{fill:#232121;opacity:.43;}.cls-4{fill:#B62E31;}</style>
    </defs>
    <g id="Layer_2-2">
        <path
            d="M963.62,36c512.31,0,927.62,415.31,927.62,927.62s-415.31,927.62-927.62,927.62S36,1475.93,36,963.62,451.31,36,963.62,36M963.62,0c-65.36,0-130.68,6.59-194.17,19.58-61.89,12.66-122.76,31.56-180.93,56.16-57.11,24.15-112.18,54.05-163.7,88.85-51.02,34.47-98.99,74.05-142.59,117.65-43.6,43.6-83.18,91.57-117.65,142.59-34.8,51.52-64.7,106.59-88.85,163.7-24.6,58.17-43.5,119.04-56.16,180.93C6.59,832.94,0,898.26,0,963.62s6.59,130.68,19.58,194.17c12.66,61.89,31.56,122.76,56.16,180.93,24.15,57.11,54.05,112.18,88.85,163.7,34.47,51.02,74.05,98.99,117.65,142.59,43.6,43.6,91.57,83.18,142.59,117.65,51.52,34.8,106.59,64.7,163.7,88.85,58.17,24.6,119.04,43.5,180.93,56.16,63.48,12.99,128.81,19.58,194.17,19.58s130.68-6.59,194.17-19.58c61.89-12.66,122.76-31.56,180.93-56.16,57.11-24.15,112.18-54.05,163.7-88.85,51.02-34.47,98.99-74.05,142.59-117.65,43.6-43.6,83.18-91.57,117.65-142.59,34.8-51.52,64.7-106.59,88.85-163.7,24.6-58.17,43.5-119.04,56.16-180.93,12.99-63.48,19.58-128.81,19.58-194.17s-6.59-130.68-19.58-194.17c-12.66-61.89-31.56-122.76-56.16-180.93-24.15-57.11-54.05-112.18-88.85-163.7-34.47-51.02-74.05-98.99-117.65-142.59-43.6-43.6-91.57-83.18-142.59-117.65-51.52-34.8-106.59-64.7-163.7-88.85-58.17-24.6-119.04-43.5-180.93-56.16C1094.31,6.59,1028.98,0,963.62,0h0Z" />
        <path class="cls-3"
            d="M718.24,1577.27c-55.05-1.55-245.82-42.57-5.39-62.42,61.5-5.08,139.34-10.42,238.71-8.47,374.02,7.34,405.44-8.26,431.45,37.15,26.01,45.41-416.84,56.93-467.3,45.23-22.87-5.3-109.53-9.01-197.47-11.49Z" />
        <path class="cls-1"
            d="M781.63,901.01c10.67,91.9,21.96,127.22-73.09,217.51-26.85,25.51-68.26,66.25-127.77,73.48" />
        <polyline class="cls-2"
            points="642.05 793.25 697.14 774.18 730.52 763.76 744.29 769.41 781.07 793.25 833.82 783.45 863.93 758.11 932.62 758.11 983.83 820.8 972.62 852.57 926.53 938.93 809.45 951.12 732.67 941.37 674.89 901.01 657.41 852.57 629.86 854.61 612.27 839.87" />
        <path
            d="M734.99,643.41c-6.59,5.47-7.33,58.94-6.03,69.62,4.2,34.57,19.17,65.69,57.17,69.9,95.87,10.61,149.29-143.15,113.18-215.96-18.71-37.73-45.16-35.5-79.48-19.02-40.84,19.61-45.76,48.6-67.66,81.83-7.7,11.68-11.29,8.74-17.19,13.63ZM705.29,651.67c-18.29-16.33-26.5-61.88-38.95-83.4-52.11,56.34-80.58,151.18-19.65,212.11,26.1-13.34,54.16-24.36,84.12-23.43-10.87-22.42-14.67-49.06-13.16-73.87.98-15.98,7.49-30.82,9.26-44.93,1.9-15.08-1.38-33.05,5.76-47.48-4.6-4.65-13.92,24.9-14.49,27.52-.8,3.66-1.6,12.53-1.52,16.37.2,9.57,9.01,35.31-11.37,17.11ZM827.97,846.66c-13.31,1.44-26.33,5.06-38.38,10.9-15.89,7.71-30.62,16.9-44.73,28.39-3.21,2.62-16.14,18.55-19.66,14.89-1.37-17.4,18.82-36.01,31.91-45.61,36.94-27.1,95.82-39.31,136.1-13.08,34.69,22.59,38.42,66.6-13.66,60.37-8.01-.96-18.96-3.46-19.84-12.84,14.02-1.85,28.61.52,43.05-2.78,3.03-1.64-1.57-8.28-2.97-10.22-15.88-21.95-45.39-31.78-71.83-30.01h0ZM805.75,940.8c155.22,9.87,162.35-111.87,162.35-111.87-4.88-47.81-63.23-69.25-105.17-64.52-29,38.78-97.65,49.37-126.53,4.61l-2.34-.47c-31.88,6.33-95.6,26.59-110.08,58.17-15.43,33.65,35.19,15.46,49.57,8.47,12.01-5.84,46.93-33.18,59.18-25.01,3.42,2.28,1.86,6.5-.91,8.53l-65.6,39.1s-15.69,73.12,139.53,82.99ZM1006.35,784.24s5.23.54,21.77,4.73c5.61,1.42,18.18,4.51,28.26,9.6,30.49,15.37,49.13,33.09,49.13,33.09,0,0,44.5,34.26,77.82,105.3,37.39,79.71,38.26,163.46-19.07,233.85-2.91,3.58-12.96,11.59-14.01,14.11-4.09,9.88,21.94,49.86,29.06,58.77,16.19,20.26,18.01,24.45,38.33,4.8,33.52-32.42,41.71-67.97,60.92-107.25,14.14-28.9,37.66-44.82,59.2-11.15,23.49,36.74,51.3,130.37,48.99,173.53-1.47,27.61-20.47,100.43-61.19,77.86-31.3-17.34-10.04-93.44-11.69-122.86l-7.57-58.78c-9.22,10.67-13.56,25.35-21.23,37.61-12.32,19.71-54.53,70.19-75.38,77.84-22.23,8.16-44.55-13.64-58.43-29.13-20.17-22.52-34.62-48.97-45.8-76.92-34.41,15.8-73.85,10.14-108.14-3.42-17.52,18.85-48.96,54.08-49.38,80.89-.75,47.63,61.88,98.4,98.79,121.32,15.07,9.36,55.71,24.66,57.37,43.54.64,7.33-2.24,14.7-8.24,18.88-42.99,29.91-160.18,32.03-209.6,17.7-14.31-4.15-26.73-11.82-23.43-28.7,5.68-29.07,34.47-32.48,59.37-33.52,22.28-.93,46.78,1.08,69.35,1.77,3.24.1,6.23.88,9.23,1.99l.94-3.73c-3.51-.62-6.44-2.74-9.17-4.88-43.91-34.36-102.24-97.51-83.75-158.16,8.93-29.29,34.06-54.27,49.95-79.89-48.13-28.07-70.98-64.52-70.98-64.52,0,0-41.91-51.94-59.83-137.32,0,0-3.49-19.73-16.82-20.54,0,0-37.39-2.43-86.21-17.8-15.14-4.77-29.33-12.25-41.66-22.26-39.45-32.03-33.03-56.91-33.03-56.91-68.5,6.23-57.68-45.5-14.78-74.02-45.39-38.14-42.59-111.27-21.95-162.13,18.52-45.65,57.89-88.17,99.91-113.11,8.35-4.95,23.42-7.6,23.05-18.02-1.21-33.85-33.22-87.95-67.27-97.33-15.34-4.22-12.35,2.78-21.13,9.09-24.75,17.8-74.92,18.14-66.34-23.57,5.16-25.07,40.36-31.66,60.67-22.28,4.27,1.97,9.54,8.79,11.39,9.56,29.18,12.16,38.92,5.42,65.14,32.57,21.93,22.71,36.44,55.99,39.9,87.18l26.43-5.17c15.15-2.97,30.58-4.26,46.02-3.86l30.4.79c15.84-51.73,42.1-96.02,89.85-123.28,3.42-1.95,14.54-5.32,16.1-7.25,1.27-1.56,1.25-5.82,3.35-8.79,6.42-9.08,24.02-16.82,34.96-16.4,44.16,1.7,42.91,74.26-6.55,66.33-13.15-2.11-18.23-11.87-28.45-18.27-45.21,20.98-72.49,65.92-88.76,111.24,45.6,12.05,87.44,41.61,112.87,81.42,27.13,42.47,31.34,96.42,25.4,145.59-8.49,70.36-14.11,70.26-14.11,70.26Z" />
        <path class="cls-2"
            d="M734.99,643.41c5.89-4.89,9.49-1.95,17.19-13.63,21.9-33.24,26.81-62.22,67.66-81.83,34.32-16.48,60.77-18.7,79.48,19.02,36.1,72.81-17.31,226.57-113.18,215.96-37.99-4.2-52.97-35.33-57.17-69.9-1.3-10.68-.56-64.16,6.03-69.62ZM757.28,710.54c.92,69.52,45.19,58.48,48.36-4.88.84-16.82-3.05-69.29-23.89-73.58-23.29-4.8-28.26,42.52-23.98,57.77,1.64,5.84,12.02,7.37,15.98,11.97l-16.47,8.71Z" />
        <path class="cls-2"
            d="M705.29,651.67c20.38,18.2,11.56-7.54,11.37-17.11-.08-3.84.73-12.71,1.52-16.37.57-2.62,9.89-32.17,14.49-27.52-7.14,14.43-3.86,32.4-5.76,47.48-1.78,14.11-8.29,28.94-9.26,44.93-1.52,24.81,2.28,51.45,13.16,73.87-29.96-.93-58.02,10.09-84.12,23.43-60.93-60.93-32.46-155.76,19.65-212.11,12.45,21.52,20.66,67.07,38.95,83.4ZM654.46,710.51c-2.85,14.49,6.23,56.82,27.73,41.73,21.7-15.24,25.4-90.5,5.51-108.18-19.8-17.6-32.56,25.16-33.34,39.39-.72,13.16,6.59,14.53,16.65,20.25l-16.54,6.81Z" />
        <path
            d="M758.49,709.91l12.35-6.53c1.5-.79,1.59-2.91.16-3.82-4.74-3.03-11.89-4.93-13.23-9.69-4.28-15.26.69-62.57,23.98-57.77,20.84,4.29,24.73,56.75,23.89,73.58-3.15,62.94-46.86,74.25-48.34,6.25-.02-.83.44-1.61,1.18-2Z" />
        <path
            d="M654.46,710.51l12.36-5.09c1.69-.69,1.79-3.05.18-3.89-7.92-4.15-13.26-6.75-12.64-18.08.78-14.23,13.55-56.99,33.34-39.39,19.89,17.68,16.19,92.95-5.51,108.18-21.49,15.09-30.58-27.24-27.73-41.73Z" />
        <path class="cls-4"
            d="M932.62,1145.65c162.83,55.85,248.52-54.2,248.52-54.2,0,0-24.88,106.44-114,106.44s-134.52-52.24-134.52-52.24Z" />
        <path
            d="M646.62,1151.58c-4.38,1.42-8.76,2.84-13.14,4.26l-6.57,2.13c-.94.3-1.87.63-2.81.91-.7.22-4.21.53-2.38.86,2.26.41-1.63-1.2-1.73-1.25-1.71-.86-3.48-1.62-5.26-2.33-3.59-1.43-7.22-2.24-11.05-2.75-15.03-2-31.24,2.74-42.12,13.54-3.46,3.44-5.76,7.99-8.07,12.24-3.32,6.12-6.22,13.34-.52,19.23,5.13,5.31,11.81,3.73,17.89,1.59,1.15-.4,2.3-.75,3.46-1.11.32-.1-.64-.07-.37.06,4.08,1.89,10.67,1.85,15.07,2.33,8.74.96,17.58,1,26.33.11s17.55-2.23,24.34-8.23c7.52-6.65,8.84-17.67,1.49-25-5.84-5.82-15.32-6.96-23.05-8.27-17.02-2.88-35.39-3.04-50.33,6.9-12.24,8.14-29.06,27.47-14.39,41.3,14.83,13.98,38.14,5.35,53.38-3.16,7.7-4.3,17.19-9,21.3-17.23,2.88-5.77,3.02-12.91-1.97-17.61-4.51-4.25-11.22-4.88-17.13-5.15s-11.22,5.35-11.22,11.22c0,6.31,5.14,10.95,11.22,11.22,2.05.09,3.79.38,5.73,1.07l-4.95-2.89.96.79-2.89-4.95.37,1.43v-5.97c-.71,3.22-9.62,6.93-12.75,8.68-5.9,3.3-12.32,6.53-19.14,7.26-1.45.16-3,.15-4.46.06-1.78-.12-.7-.05-.35.01-.6-.11-1.29-.27-1.85-.51-.31-.13-1.01-.52-1.04-.66-.02-.08,2.73,4.7,1.27,4.64.07,0,3.96-5.55,4.51-6.11,2.02-2.09,4.16-3.79,6.66-5.26,11.75-6.9,26.27-4.63,38.93-1.91,1.53.33,3.1.85,4.65,1.07,2.14.3.36.27.67-.1.07-.08-.49-7.7-.39-7.68s-1.22.76-1.21.76c-.93.18-2.34.8-3.46,1.06-6.49,1.49-14.01,1.55-20.89,1.37-4.33-.12-8.67-.42-12.95-1.05s-8.29-2.07-12.41-2.07c-2.92,0-5.85.82-8.59,1.76-1.12.39-2.26.76-3.36,1.2-.29.11-1.04.18-1.26.39-.67.16-.52.17.43.02.98-.16,1.95-.12,2.92.14l4.95,2.89-.24-.27,2.89,4.95c.14.6-2.23,8.59-.49,6.13.3-.42.49-.97.73-1.43.7-1.34,1.43-2.66,2.17-3.98s1.49-2.63,2.27-3.93c.27-.45.59-.9.84-1.37,1.18-2.22-.63,1.06-.81.9-.68-.6,8.71-6.15,9.24-6.37,2.94-1.19,6.36-1.96,9.44-2.1,3.9-.18,6.64.12,10.32,1.24,3.9,1.2,7.52,3.88,11.72,4.88,6.13,1.47,11.84-.62,17.6-2.49s11.89-3.85,17.83-5.78c13.68-4.44,7.83-26.12-5.97-21.64h0Z" />
        <path
            d="M781.66,1172.21c-11.56-3.77-23.32-6.87-35.26-9.16-10.93-2.1-23.58-5.12-34.03.41s-14.76,18.4-10.72,29.4,13.99,18.07,24.75,21.3c9.42,2.82,19.9,2.43,28.97-1.36,9.61-4.01,22.83-14.88,15.99-26.58-3.18-5.44-10.12-7.55-15.63-9.67-5.07-1.95-10.28-3.59-15.66-4.39-10.6-1.56-22.59.22-28.88,9.95-4,6.19-4.28,14.47,1.08,20.02,4.69,4.86,11.02,5.71,17.44,6.3,13.61,1.25,27.71-.95,40.39-5.96,4.23-1.67,7.47-4.55,8.04-9.33.49-4.09-1.29-9.3-5.36-11.18-13.58-6.28-30.98-2.12-37.83,12.07-3.37,6.98-.41,13.77,6.71,16.49,20.45,7.79,38.6-7.15,51.45-21.3,9.69-10.67-6.13-26.59-15.87-15.87-7.44,8.19-17.33,20.21-29.61,15.53,2.24,5.5,4.47,10.99,6.71,16.49,1.19-2.47,1.53-2.9,3.64-3.79.95-.4.41-.29,1.84-.34,1.42.07,1.68.06.77-.04,1.31.44,1.6.49.88.15l2.68-20.51c-6.66,2.63-13.65,4.66-20.81,5.23-3.63.29-7.27.33-10.9.12-1.52-.09-3.04-.33-4.54-.4-2.78-.14-.53-.49-.1.05l2.89,4.95c.39,1.76.02,3.09-1.08,3.99l-.46.2c-.1-.1,1.27-.67,1.77-.8,1.07-.28,3.96-.23,5.19-.05,3.16.46,6.34,1.53,9.36,2.54,2.09.7,6.93,1.86,8.29,3.17l-2.89-4.95.34,1.21v-5.97c.59-1.95,2.32-2.87,0-.85-.19.17-1.78,1.56-1.22,1.15-1.27.94-3.06,1.75-3.74,2-3.35,1.19-6.2,1.43-9.39,1.12-4.08-.4-15.33-4.15-14.29-9.8-.13.71.64-.64.55-.59.36-.18,1.7-.34,3.01-.36,4.98-.06,9.25.94,14.32,1.92,11.94,2.3,23.7,5.39,35.26,9.16,5.76,1.88,12.25-2.19,13.81-7.84,1.67-6.09-2.06-11.92-7.84-13.81h0Z" />
        <path class="cls-4"
            d="M1178.19,991.85c3.21,9.6,4.79,19.69,4.4,29.8-1.4,36.4-21.57,105.19-141.39,116.61-146.58,13.97-169.94-78.65-169.94-78.65,204.23,23.67,292.14-112.04,292.14-112.04l14.79,44.28Z" />
        <path class="cls-4"
            d="M847.6,985.08c-.94-7.69,5.1-14.28,12.65-12.57h0c2.55.58,5.19.62,7.76.13,20.91-3.98,113.09-29.45,135.66-171.82,0,0,87.85,11.23,144.8,118.92,0,0-51.22,141.66-283.62,121.56,0,0-12.74-19.32-17.26-56.23Z" />
        <path class="cls-2"
            d="M1070.21,811.84c-.43-.36-18.33-14.93-58.17-24.26l-8.64-2.02,3.45-8.17c2.17-5.14,54.04-126.54,125.67-177.03,49.75-35.06,68.74-39.56,79.72-39.56,7.29,0,12.19,2.24,16.12,4.04.95.43,1.84.84,2.7,1.19,5.65,2.27,9.99,8.15,12.55,17.03,6.28,21.76,1.71,60.56-29.94,104.19-41.5,57.2-111,115.77-135.81,125.84l-4.22,1.71-3.44-2.94Z" />
        <path
            d="M1212.25,568.27c7.26,0,11.38,2.82,16.03,4.69,12.18,4.88,21.37,51.95-20.66,109.88s-110.43,114.32-132.57,123.3c0,0-18.5-15.82-61.31-25.85,0,0,52.38-123.99,123.09-173.83,43.7-30.8,63.66-38.19,75.41-38.19M1212.25,553.31h0c-12.84,0-32.86,4.86-84.03,40.93-31.07,21.9-62.14,58.99-92.33,110.24-22.18,37.65-35.37,68.7-35.92,70l-6.9,16.34,17.27,4.05c36.94,8.66,53.98,21.85,55.05,22.7l6.9,6.12,8.4-3.67c13.23-5.37,37.44-22.99,63.17-46,29.59-26.45,56.54-55.71,75.88-82.38,33.23-45.81,37.84-87.2,31.07-110.66-4.07-14.11-11.47-19.7-16.96-21.9-.69-.28-1.47-.63-2.37-1.05-4.1-1.88-10.3-4.72-19.23-4.72h0Z" />
        <path
            d="M1025.09,786.44s79.48-65.47,134.7-120.6c1-.99,2.55.36,1.69,1.48-16.2,21.22-46.85,51.54-69.8,73.61-30.31,29.14-54.53,50.08-54.53,50.08l-12.06-4.58Z" />
        <path class="cls-2"
            d="M1144.17,867.67c-3.13,0-5.85-.15-8.08-.45l-3.9-.52-1.44-3.66c-.07-.16-8.05-19.45-36.05-44.5l-6.02-5.39,6.41-4.92c3.91-3,96.74-73.57,175.19-80.74,15.24-1.39,28.47-2.1,39.32-2.1,36.02,0,44.47,7.38,51.77,17.04.57.76,1.11,1.47,1.65,2.12,3.56,4.27,4.48,11.11,2.59,19.26-4.51,19.47-24.76,47.2-68.07,66.62-53.51,23.99-124.66,37.25-153.38,37.25Z" />
        <path
            d="M1309.6,732.08c39.75,0,42.22,9.46,48.28,16.74,7.62,9.15-5.04,49.47-63.07,75.48-52.76,23.65-122.34,36.67-150.64,36.67-2.83,0-5.24-.13-7.18-.39,0,0-8.01-20.37-37.82-47.04,0,0,94.31-72.31,171.73-79.39,15.83-1.45,28.5-2.07,38.71-2.07M1309.6,718.69v13.39-13.39c-11.06,0-24.5.72-39.94,2.13-34.03,3.11-74.5,17.93-120.31,44.05-33.66,19.19-57.35,37.28-58.35,38.05l-12.82,9.83,12.04,10.77c26.69,23.89,34.22,41.79,34.29,41.97l2.88,7.32,7.8,1.05c2.56.34,5.49.51,8.97.51,30.06,0,101.04-13.15,156.12-37.84,45.55-20.42,66.98-50.18,71.85-71.22,2.37-10.24.96-19.13-3.97-25.05-.44-.53-.91-1.15-1.46-1.88-8.15-10.77-18.08-19.69-57.11-19.69h0Z" />
        <path
            d="M1105.58,823.29s91.04-15.24,158.38-33.25c1.21-.32,1.87,1.4.72,1.89-21.9,9.17-59.15,18.96-86.79,25.79-36.49,9.03-64.65,14.43-64.65,14.43l-7.66-8.86Z" />
        <path class="cls-1"
            d="M960.9,901.01c10.67,91.9,21.96,127.22-73.09,217.51-26.85,25.51-68.26,66.25-127.77,73.48" />
        <polygon
            points="1891.24 953.62 973.62 953.62 973.62 36 953.62 36 953.62 953.62 36 953.62 36 973.62 953.62 973.62 953.62 1891.24 973.62 1891.24 973.62 973.62 1891.24 973.62 1891.24 953.62" />
        <rect x="938.01" y="1635.77" width="51.22" height="261.64" />
        <rect x="938.01" y="29.24" width="51.22" height="269.27" />
        <rect x="1734.82" y="832.8" width="51.22" height="261.64"
            transform="translate(796.8 2724.05) rotate(-90)" />
        <rect x="141.21" y="832.8" width="51.22" height="261.64"
            transform="translate(-796.8 1130.44) rotate(-90)" />
    </g>
</svg>