<?xml version="1.0" encoding="UTF-8"?>
<svg id="Layer_2" data-name="Layer 2" xmlns="http://www.w3.org/2000/svg" viewBox="0 0 487.64 1405.63">
  <defs>
    <style>
      .cls-1 {
        fill: none;
        stroke: #000;
        stroke-width: 12px;
      }
    </style>
  </defs>
  <g id="Layer_1-2" data-name="Layer 1">
    <g>
      <path class="cls-1" d="M481.64,1399.63H6v-232.39c0-90.37,55.04-152.89,134.54-152.89,58.44,0,106.68,41.45,122.99,104.64,6.12-31.26,25.14-53.68,54.36-65.23l163.76-61.15v86.97l-150.17,55.04c-19.03,6.79-29.22,22.42-29.22,44.17v139.29h179.38v81.54ZM230.23,1318.09v-146.77c0-50.28-36.01-76.1-77.46-76.1-43.49,0-73.38,29.9-73.38,76.1v146.77h150.85Z"/>
      <path class="cls-1" d="M481.64,927.39H6v-100.56l377.8-148.81L6,529.89v-100.56h475.64v81.54H146.65l334.99,131.82v71.35l-334.31,131.82h334.31v81.54Z"/>
      <path class="cls-1" d="M481.64,330.12H6v-81.54h402.26V6h73.38v324.12Z"/>
    </g>
  </g>
</svg>