<?xml version="1.0" encoding="UTF-8"?>
<svg id="Layer_2" data-name="Layer 2" xmlns="http://www.w3.org/2000/svg"
  viewBox="0 0 283.51 1438.42">
  <defs>
    <style>
      .cls-1 {
      fill: none;
      stroke: #000;
      stroke-width: 8px;
      }
    </style>
  </defs>
  <g id="Layer_1-2" data-name="Layer 1">
    <g>
      <path class="cls-1"
        d="M141,1434.92c-80.3,0-137.5-50.76-137.5-132.95,0-68.94,40.91-116.29,107.95-127.65v46.59c-41.67,8.33-67.04,39.01-67.04,81.06,0,53.03,37.12,86.36,96.59,86.36s97.73-33.71,97.73-84.47c0-41.29-26.89-68.18-64.77-68.18v79.92h-38.26v-90.53c0-34.09,17.04-52.65,49.24-52.65h89.39v40.15h-81.06v.76c53.03,5.3,86.74,40.15,86.74,95.08,0,74.24-54.54,126.51-139.01,126.51Z" />
      <path class="cls-1" d="M274.33,1124.31H9.18v-45.45h265.15v45.45Z" />
      <path class="cls-1" d="M274.33,951.97H50.09v88.64H9.18v-222.35h40.91v88.26h224.24v45.45Z" />
      <path class="cls-1"
        d="M274.33,779.63H9.18v-45.45h109.09v-145.45H9.18v-45.45h265.15v45.45h-115.15v145.45h115.15v45.45Z" />
      <path class="cls-1"
        d="M186.07,490.61H9.18v-45.45h175.76c34.09,0,53.41-27.65,53.41-64.77s-19.32-65.15-53.41-65.15H9.18v-45.45h176.89c53.03,0,93.94,41.29,93.94,110.23s-40.15,110.6-93.94,110.6Z" />
      <path class="cls-1"
        d="M274.33,216.76H9.18v-125.76C9.18,42.89,36.45,9.18,76.23,9.18c30.3,0,53.79,21.97,61.74,54.54,5.68-36.74,30.68-60.23,64.39-60.23,42.42,0,71.97,34.85,71.97,85.23v128.03ZM119.79,171.68v-79.17c0-22.73-15.15-38.26-36.36-38.26-19.7,0-33.71,14.39-33.71,34.85v82.58h70.08ZM233.42,171.68v-85.23c0-22.73-16.29-36.74-37.5-36.74s-36.74,16.67-36.74,40.91v81.06h74.24Z" />
    </g>
  </g>
</svg>