<?xml version="1.0" encoding="UTF-8"?>
<svg id="Layer_2" data-name="Layer 2" xmlns="http://www.w3.org/2000/svg" viewBox="0 0 2048 2048">
  <defs>
    <style>
      .cls-1 {
        fill: #ffe6e6;
      }
    </style>
  </defs>
  <g id="Layer_1-2" data-name="Layer 1">
    <rect class="cls-1" x="0" width="2048" height="2048" rx="244.52" ry="244.52"/>
    <g>
      <path d="M310.74,1267.44v-486.87h237.87c92.51,0,156.5,56.34,156.5,137.72,0,59.82-42.43,109.2-107.11,125.89,31.99,6.26,54.95,25.73,66.77,55.64l62.6,167.62h-89.03l-56.34-153.71c-6.95-19.47-22.95-29.91-45.21-29.91h-142.58v183.62h-83.46ZM394.2,1010.09h150.23c51.47,0,77.9-36.86,77.9-79.29,0-44.51-30.6-75.12-77.9-75.12h-150.23v154.41Z"/>
      <path d="M794.12,1267.44v-486.87h102.94l152.32,386.72,151.63-386.72h102.94v486.87h-83.46v-342.9l-134.93,342.9h-73.03l-134.93-342.2v342.2h-83.46Z"/>
      <path d="M1405.5,1267.44v-486.87h83.46v411.76h248.3v75.12h-331.77Z"/>
    </g>
  </g>
</svg>